<svg width="60" height="60" viewBox="0 0 60 60" fill="none" xmlns="http://www.w3.org/2000/svg">
<path d="M51.9996 28.5974V12.9988C51.997 12.3806 51.8035 11.7783 51.4455 11.2743C51.0875 10.7703 50.5825 10.3891 49.9996 10.1831V6.99937C49.9996 6.20379 49.6835 5.4408 49.1209 4.87824C48.5583 4.31568 47.7952 3.99964 46.9996 3.99964H18.9998C18.7346 3.99964 18.4803 3.89429 18.2927 3.70677C18.1052 3.51925 17.9998 3.26492 17.9998 2.99973C17.9998 2.20415 17.6838 1.44116 17.1212 0.8786C16.5586 0.316042 15.7955 0 14.9999 0H2.99997C2.20433 0 1.44128 0.316042 0.878672 0.8786C0.316068 1.44116 0 2.20415 0 2.99973V40.9963C0 41.7919 0.316068 42.5549 0.878672 43.1174C1.44128 43.68 2.20433 43.996 2.99997 43.996H26.0508C26.2196 46.907 27.1349 49.7254 28.7086 52.1802C30.2823 54.6349 32.4615 56.6433 35.0363 58.0121C37.6111 59.3808 40.4949 60.0638 43.4101 59.9953C46.3254 59.9268 49.1739 59.1092 51.6816 57.6211C54.1893 56.1329 56.2717 54.0245 57.7284 51.4985C59.1851 48.9726 59.967 46.1142 59.999 43.1986C60.0309 40.283 59.3118 37.4082 57.9108 34.8509C56.5098 32.2937 54.474 30.1401 51.9996 28.5974ZM1.99998 40.9963V2.99973C1.99998 2.73454 2.10534 2.48021 2.29287 2.29269C2.48041 2.10517 2.73476 1.99982 2.99997 1.99982H14.9999C15.2651 1.99982 15.5194 2.10517 15.707 2.29269C15.8945 2.48021 15.9999 2.73454 15.9999 2.99973C15.9999 3.79531 16.3159 4.5583 16.8785 5.12086C17.4411 5.68342 18.2042 5.99946 18.9998 5.99946H46.9996C47.2648 5.99946 47.5192 6.10481 47.7067 6.29233C47.8942 6.47984 47.9996 6.73418 47.9996 6.99937V9.9991H10.9999C9.67432 10.0007 8.40349 10.5279 7.46616 11.4652C6.52883 12.4024 6.00154 13.6732 5.99995 14.9986V38.9965C6.00363 40.0818 6.36414 41.1359 7.02594 41.9962H2.99997C2.73476 41.9962 2.48041 41.8909 2.29287 41.7033C2.10534 41.5158 1.99998 41.2615 1.99998 40.9963ZM7.99993 38.9965V14.9986C7.99993 14.2031 8.316 13.4401 8.8786 12.8775C9.44121 12.315 10.2043 11.9989 10.9999 11.9989H48.9996C49.2648 11.9989 49.5192 12.1043 49.7067 12.2918C49.8942 12.4793 49.9996 12.7336 49.9996 12.9988V27.5235C47.491 26.3802 44.7413 25.8662 41.989 26.0259C39.2367 26.1857 36.565 27.0145 34.2056 28.4403C31.8461 29.8662 29.8701 31.8461 28.4491 34.2084C27.028 36.5706 26.2048 39.2438 26.0508 41.9962H10.9999C10.2043 41.9962 9.44121 41.6802 8.8786 41.1176C8.316 40.555 7.99993 39.7921 7.99993 38.9965ZM42.9996 57.9948C40.0329 57.9948 37.1329 57.1151 34.6662 55.467C32.1994 53.819 30.2769 51.4765 29.1416 48.7358C28.0063 45.9952 27.7092 42.9795 28.288 40.07C28.8668 37.1606 30.2954 34.4881 32.3931 32.3905C34.4909 30.2929 37.1636 28.8644 40.0733 28.2857C42.983 27.7069 45.999 28.004 48.7398 29.1392C51.4807 30.2744 53.8234 32.1968 55.4716 34.6633C57.1198 37.1298 57.9995 40.0297 57.9995 42.9961C57.995 46.9726 56.4132 50.785 53.6012 53.5968C50.7891 56.4086 46.9765 57.9903 42.9996 57.9948Z" fill="#034899"/>
<path d="M51.4236 40.0903C51.2515 40.0099 51.06 39.9801 50.8715 40.0046C50.6831 40.029 50.5055 40.1066 50.3596 40.2283L45.9997 43.861V32.997C45.9997 32.7318 45.8943 32.4775 45.7068 32.2899C45.5192 32.1024 45.2649 31.9971 44.9997 31.9971H40.9997C40.7345 31.9971 40.4801 32.1024 40.2926 32.2899C40.1051 32.4775 39.9997 32.7318 39.9997 32.997V43.861L35.6397 40.2283C35.4937 40.1067 35.3161 40.0292 35.1277 40.0049C34.9392 39.9806 34.7477 40.0105 34.5757 40.0911C34.4036 40.1717 34.258 40.2996 34.156 40.4599C34.054 40.6202 33.9998 40.8063 33.9998 40.9963V45.9958C33.9998 46.1382 34.0302 46.2789 34.089 46.4086C34.1478 46.5383 34.2336 46.6539 34.3408 46.7477L42.3407 53.7471C42.523 53.9069 42.7572 53.9949 42.9997 53.9949C43.2421 53.9949 43.4763 53.9069 43.6587 53.7471L51.6586 46.7477C51.7657 46.6539 51.8515 46.5383 51.9103 46.4086C51.9692 46.2789 51.9996 46.1382 51.9996 45.9958V40.9963C51.9997 40.8061 51.9455 40.6199 51.8435 40.4595C51.7415 40.299 51.5958 40.171 51.4236 40.0903ZM49.9996 45.5418L42.9997 51.6663L35.9997 45.5418V43.1311L40.3597 46.7637C40.5057 46.8853 40.6833 46.9628 40.8718 46.9871C41.0602 47.0114 41.2517 46.9815 41.4238 46.901C41.5959 46.8204 41.7414 46.6925 41.8434 46.5322C41.9454 46.3718 41.9996 46.1858 41.9997 45.9958V33.9969H43.9997V45.9958C43.9997 46.1858 44.0539 46.3718 44.1559 46.5322C44.2579 46.6925 44.4035 46.8204 44.5756 46.901C44.7477 46.9815 44.9391 47.0114 45.1276 46.9871C45.316 46.9628 45.4937 46.8853 45.6397 46.7637L49.9996 43.1311V45.5418Z" fill="#F44336"/>
<path d="M11 13.9988C10.7348 13.9988 10.4804 14.1041 10.2929 14.2916C10.1054 14.4792 10 14.7335 10 14.9987V18.9983H12V15.9986H15V13.9988H11Z" fill="#034899"/>
<path d="M12 20.998H10V22.9979H12V20.998Z" fill="#034899"/>
</svg>
