<svg width="60" height="60" viewBox="0 0 60 60" fill="none" xmlns="http://www.w3.org/2000/svg">
<g clip-path="url(#clip0)">
<path d="M6 11H12C12.5523 11 13 10.5523 13 10C13 9.44771 12.5523 9 12 9H6C5.44772 9 5 9.44771 5 10C5 10.5523 5.44772 11 6 11Z" fill="#034899"/>
<path d="M16.9999 11H25.9999C26.5522 11 26.9999 10.5523 26.9999 10C26.9999 9.44771 26.5522 9 25.9999 9H16.9999C16.4477 9 15.9999 9.44771 15.9999 10C15.9999 10.5523 16.4477 11 16.9999 11Z" fill="#034899"/>
<path d="M6 22H38C38.5523 22 39 21.5523 39 21C39 20.4477 38.5523 20 38 20H6C5.44772 20 5 20.4477 5 21C5 21.5523 5.44772 22 6 22Z" fill="#034899"/>
<path d="M6 26H20C20.5523 26 21 25.5523 21 25C21 24.4477 20.5523 24 20 24H6C5.44772 24 5 24.4477 5 25C5 25.5523 5.44772 26 6 26Z" fill="#034899"/>
<path d="M6 34H20C20.5523 34 21 33.5523 21 33C21 32.4477 20.5523 32 20 32H6C5.44772 32 5 32.4477 5 33C5 33.5523 5.44772 34 6 34Z" fill="#034899"/>
<path d="M6 42H20C20.5523 42 21 41.5523 21 41C21 40.4477 20.5523 40 20 40H6C5.44772 40 5 40.4477 5 41C5 41.5523 5.44772 42 6 42Z" fill="#034899"/>
<path d="M6 50H20C20.5523 50 21 49.5523 21 49C21 48.4477 20.5523 48 20 48H6C5.44772 48 5 48.4477 5 49C5 49.5523 5.44772 50 6 50Z" fill="#034899"/>
<path d="M59.4 29.13L48 24.207V3C48 1.34315 46.6569 0 45 0H7C5.34315 0 4 1.34315 4 3V4H3C1.34315 4 0 5.34315 0 7V57C0 58.6569 1.34315 60 3 60H41C41.809 59.9982 42.5828 59.6688 43.145 59.087L43.965 59.67C44.5849 60.11 45.4151 60.11 46.035 59.67L55.71 52.783C58.392 50.8794 59.9898 47.7979 60 44.509V30.048C60.0006 29.6498 59.7649 29.2893 59.4 29.13ZM6 3C6 2.44772 6.44772 2 7 2H45C45.5523 2 46 2.44772 46 3V23.343L45.4 23.082C45.1473 22.973 44.8608 22.973 44.608 23.082L44.008 23.343V17C44.008 16.978 43.997 16.957 43.995 16.935C43.99 16.8512 43.9739 16.7685 43.947 16.689C43.94 16.666 43.941 16.642 43.932 16.62C43.923 16.598 43.916 16.598 43.911 16.586C43.8623 16.4772 43.7946 16.378 43.711 16.293L31.711 4.293C31.626 4.2094 31.5268 4.14167 31.418 4.093C31.405 4.087 31.396 4.077 31.384 4.072C31.372 4.067 31.338 4.064 31.316 4.057C31.2354 4.03016 31.1517 4.01369 31.067 4.008C31.042 4.011 31.022 4 31 4H6V3ZM32 7.414L40.586 16H33C32.4477 16 32 15.5523 32 15V7.414ZM41 58H3C2.44772 58 2 57.5523 2 57V7C2 6.44772 2.44772 6 3 6H30V15C30 16.6569 31.3431 18 33 18H42V24.207L38.781 25.6C38.9192 25.4302 38.9963 25.2189 39 25C39 24.4477 38.5523 24 38 24H24C23.4477 24 23 24.4477 23 25C23 25.5523 23.4477 26 24 26H37.849L33.219 28H6C5.44772 28 5 28.4477 5 29C5 29.5523 5.44772 30 6 30H30.007C30.007 30.016 30 30.031 30 30.048V32H24C23.4477 32 23 32.4477 23 33C23 33.5523 23.4477 34 24 34H30V36H6C5.44772 36 5 36.4477 5 37C5 37.5523 5.44772 38 6 38H30V40H24C23.4477 40 23 40.4477 23 41C23 41.5523 23.4477 42 24 42H30V44H6C5.44772 44 5 44.4477 5 45C5 45.5523 5.44772 46 6 46H30.125C30.2244 46.6823 30.394 47.3525 30.631 48H24C23.4477 48 23 48.4477 23 49C23 49.5523 23.4477 50 24 50H31.641C32.1136 50.7358 32.6785 51.4079 33.322 52H6C5.44772 52 5 52.4477 5 53C5 53.5523 5.44772 54 6 54H36L41.448 57.878C41.3107 57.9541 41.157 57.996 41 58ZM58 44.509C57.9903 47.1506 56.7058 49.625 54.551 51.153L45 57.952L35.449 51.152C33.2945 49.6242 32.0101 47.1502 32 44.509V30.709L33.81 29.927L33.829 29.919L45 25.089L58 30.705V44.509Z" fill="#034899"/>
<path d="M44.6 27.439L34.6 31.759C34.2351 31.9182 33.9994 32.2788 34 32.677V44.509C34.0091 46.5033 34.9803 48.3705 36.608 49.523L44.42 55.084C44.7672 55.3311 45.2328 55.3311 45.58 55.084L53.392 49.523C55.0194 48.3703 55.9906 46.5032 56 44.509V32.677C56.0006 32.2788 55.7649 31.9182 55.4 31.759L45.4 27.439C45.145 27.3276 44.8551 27.3276 44.6 27.439ZM54 33.339V44.509C53.9927 45.8587 53.3338 47.1217 52.231 47.9L45 53.042L37.769 47.894C36.6675 47.1173 36.0087 45.8567 36 44.509V33.334L45 29.447L54 33.339Z" fill="#034899"/>
<path d="M39.6 42.2C39.3142 41.9856 38.9357 41.94 38.6072 42.0803C38.2787 42.2207 38.0499 42.5256 38.0072 42.8803C37.9645 43.235 38.1142 43.5856 38.4 43.8L42.4 46.8C42.8321 47.1242 43.4435 47.0467 43.781 46.625L51.781 36.625C52.1262 36.1936 52.0564 35.5641 51.625 35.219C51.1937 34.8738 50.5642 34.9436 50.219 35.375L42.825 44.619L39.6 42.2Z" fill="#F44336"/>
</g>
<defs>
<clipPath id="clip0">
<rect width="60" height="60" fill="white"/>
</clipPath>
</defs>
</svg>
