<svg width="60" height="60" viewBox="0 0 60 60" fill="none" xmlns="http://www.w3.org/2000/svg">
<path d="M57.1875 1.875H53.4375V3.75H57.1875C57.7052 3.75 58.125 4.16977 58.125 4.6875V34.6875H55.3125V7.5C55.3125 6.98227 54.8927 6.5625 54.375 6.5625H53.4375V34.6875H50.625V0.9375C50.625 0.419766 50.2052 0 49.6875 0H10.3125C9.79477 0 9.375 0.419766 9.375 0.9375V34.6875H6.5625V6.5625H5.625C5.10727 6.5625 4.6875 6.98227 4.6875 7.5V34.6875H1.875V4.6875C1.875 4.16977 2.29477 3.75 2.8125 3.75H6.5625V1.875H2.8125C1.25918 1.875 0 3.13418 0 4.6875V45.9375C0 46.4552 0.419766 46.875 0.9375 46.875H22.2938L20.7938 54.375H18.75C18.2323 54.375 17.8125 54.7948 17.8125 55.3125V58.125H15.9375V60H44.0625V58.125H42.1875V55.3125C42.1875 54.7948 41.7677 54.375 41.25 54.375H39.2047L37.7047 46.875H59.0625C59.5802 46.875 60 46.4552 60 45.9375V4.6875C60 3.13418 58.7408 1.875 57.1875 1.875ZM44.0625 1.875H48.75V5.625H44.0625V1.875ZM20.625 1.875H42.1875V5.625H20.625V1.875ZM11.25 1.875H18.75V5.625H11.25V1.875ZM11.25 7.5H48.75V34.6875H46.875V30.9375C46.875 30.4198 46.4552 30 45.9375 30H14.0625C13.5448 30 13.125 30.4198 13.125 30.9375V34.6875H11.25V7.5ZM45 31.875V34.6875H15V31.875H45ZM38.4375 56.25H40.3125V58.125H19.6875V56.25H21.5625H38.4375ZM22.7062 54.375L24.2048 46.875H35.7938L37.2937 54.375H22.7062ZM58.125 45H1.875V36.5625H10.3125H49.6875H58.125V45Z" fill="#034899"/>
<path d="M30 37.5C28.4467 37.5 27.1875 38.7592 27.1875 40.3125C27.1875 41.8658 28.4467 43.125 30 43.125C31.5533 43.125 32.8125 41.8658 32.8125 40.3125C32.8125 38.7592 31.5533 37.5 30 37.5ZM30 41.25C29.4823 41.25 29.0625 40.8302 29.0625 40.3125C29.0625 39.7948 29.4823 39.375 30 39.375C30.5177 39.375 30.9375 39.7948 30.9375 40.3125C30.9375 40.8302 30.5177 41.25 30 41.25Z" fill="#034899"/>
<path d="M32.8125 9.375H14.0625C13.5448 9.375 13.125 9.79477 13.125 10.3125V27.1875C13.125 27.7052 13.5448 28.125 14.0625 28.125H32.8125C33.3302 28.125 33.75 27.7052 33.75 27.1875V10.3125C33.75 9.79477 33.3302 9.375 32.8125 9.375ZM17.8125 26.25H15V23.4375H17.8125V26.25ZM22.5 26.25H19.6875V23.4375H22.5V26.25ZM27.1875 26.25H24.375V23.4375H27.1875V26.25ZM31.875 26.25H29.0625V23.4375H31.875V26.25ZM31.875 21.5625H15V11.25H31.875V21.5625Z" fill="#F44336"/>
<path d="M45.9375 9.375H36.5625C36.0448 9.375 35.625 9.79477 35.625 10.3125V14.0625C35.625 14.5802 36.0448 15 36.5625 15H45.9375C46.4552 15 46.875 14.5802 46.875 14.0625V10.3125C46.875 9.79477 46.4552 9.375 45.9375 9.375ZM45 13.125H37.5V11.25H45V13.125Z" fill="#034899"/>
<path d="M42.1875 16.875H35.625V18.75H42.1875V16.875Z" fill="#034899"/>
<path d="M46.875 16.875H45V18.75H46.875V16.875Z" fill="#034899"/>
<path d="M46.875 20.625H35.625V22.5H46.875V20.625Z" fill="#034899"/>
<path d="M43.125 24.375H35.625V26.25H43.125V24.375Z" fill="#034899"/>
</svg>
