<svg width="60" height="60" viewBox="0 0 60 60" fill="none" xmlns="http://www.w3.org/2000/svg">
<path d="M10.5836 31.2102L21.8322 19.9616L23.1578 21.2872L11.9092 32.5358L10.5836 31.2102Z" fill="#F44336"/>
<path d="M13.125 25.3125C14.6756 25.3125 15.9375 24.0506 15.9375 22.5C15.9375 20.9494 14.6756 19.6875 13.125 19.6875C11.5744 19.6875 10.3125 20.9494 10.3125 22.5C10.3125 24.0506 11.5744 25.3125 13.125 25.3125ZM13.125 21.5625C13.6416 21.5625 14.0625 21.9825 14.0625 22.5C14.0625 23.0175 13.6416 23.4375 13.125 23.4375C12.6084 23.4375 12.1875 23.0175 12.1875 22.5C12.1875 21.9825 12.6084 21.5625 13.125 21.5625Z" fill="#F44336"/>
<path d="M20.625 27.1875C19.0744 27.1875 17.8125 28.4494 17.8125 30C17.8125 31.5506 19.0744 32.8125 20.625 32.8125C22.1756 32.8125 23.4375 31.5506 23.4375 30C23.4375 28.4494 22.1756 27.1875 20.625 27.1875ZM20.625 30.9375C20.1084 30.9375 19.6875 30.5175 19.6875 30C19.6875 29.4825 20.1084 29.0625 20.625 29.0625C21.1416 29.0625 21.5625 29.4825 21.5625 30C21.5625 30.5175 21.1416 30.9375 20.625 30.9375Z" fill="#F44336"/>
<path d="M29.0625 26.25C29.0625 19.53 23.595 14.0625 16.875 14.0625C10.155 14.0625 4.6875 19.53 4.6875 26.25C4.6875 32.97 10.155 38.4375 16.875 38.4375C23.595 38.4375 29.0625 32.97 29.0625 26.25ZM6.5625 26.25C6.5625 20.5641 11.1891 15.9375 16.875 15.9375C22.5609 15.9375 27.1875 20.5641 27.1875 26.25C27.1875 31.9359 22.5609 36.5625 16.875 36.5625C11.1891 36.5625 6.5625 31.9359 6.5625 26.25Z" fill="#034899"/>
<path d="M55.3125 2.8125H47.8125C47.8125 1.77844 46.9716 0.9375 45.9375 0.9375H29.0625C28.0284 0.9375 27.1875 1.77844 27.1875 2.8125H19.6875C17.6194 2.8125 15.9375 4.49437 15.9375 6.5625V10.3603C7.58625 10.8497 0.9375 17.7787 0.9375 26.25C0.9375 33.3759 5.63906 39.4238 12.1031 41.4563L11.2631 53.2088C11.2547 53.3381 11.25 53.4684 11.25 53.5988C11.25 56.6119 13.7006 59.0625 16.7137 59.0625H17.0372C19.4513 59.0625 21.5006 57.4875 22.2216 55.3125H55.3125C57.3806 55.3125 59.0625 53.6306 59.0625 51.5625V6.5625C59.0625 4.49437 57.3806 2.8125 55.3125 2.8125ZM29.0625 2.8125H45.9375L45.9384 8.4375H29.0625V2.8125ZM45.9375 10.3125C46.9716 10.3125 47.8125 9.47156 47.8125 8.4375H53.4375V49.6875H22.2347L21.6469 41.4563C28.1109 39.4238 32.8125 33.3759 32.8125 26.25C32.8125 19.0931 28.0697 13.0247 21.5625 11.0184V8.4375H27.1875C27.1875 9.47156 28.0284 10.3125 29.0625 10.3125H45.9375ZM19.6875 4.6875H27.1875V6.5625H21.5625C20.5284 6.5625 19.6875 7.40344 19.6875 8.4375V10.5759C19.0744 10.4663 18.4481 10.3969 17.8125 10.3594V6.5625C17.8125 5.52844 18.6534 4.6875 19.6875 4.6875ZM2.8125 26.25C2.8125 18.4959 9.12094 12.1875 16.875 12.1875C24.6291 12.1875 30.9375 18.4959 30.9375 26.25C30.9375 34.0041 24.6291 40.3125 16.875 40.3125C9.12094 40.3125 2.8125 34.0041 2.8125 26.25ZM16.875 42.1875C17.8744 42.1875 18.8494 42.0834 19.7991 41.9062L19.9331 43.7859C17.8875 44.1459 15.8625 44.1459 13.8169 43.7859L13.9509 41.9062C14.9006 42.0834 15.8756 42.1875 16.875 42.1875ZM17.0363 57.1875H16.7128C14.7347 57.1875 13.125 55.5769 13.125 53.5988C13.125 53.5144 13.1278 53.4291 13.1344 53.3438L13.6828 45.6703C14.7525 45.8475 15.8231 45.9375 16.875 45.9375C17.9269 45.9375 18.9966 45.8475 20.0672 45.6694L20.6156 53.3438C20.6222 53.4291 20.625 53.5144 20.625 53.5978C20.625 55.5769 19.0153 57.1875 17.0363 57.1875ZM57.1875 51.5625C57.1875 52.5966 56.3466 53.4375 55.3125 53.4375H22.4944C22.4925 53.3616 22.4916 53.2847 22.4859 53.2097L22.3688 51.5625H53.4375C54.4716 51.5625 55.3125 50.7216 55.3125 49.6875V8.4375C55.3125 7.40344 54.4716 6.5625 53.4375 6.5625H47.8125V4.6875H55.3125C56.3466 4.6875 57.1875 5.52844 57.1875 6.5625V51.5625Z" fill="#034899"/>
<path d="M38.4375 12.1875H49.6875V14.0625H38.4375V12.1875Z" fill="#034899"/>
<path d="M34.6875 12.1875H36.5625V14.0625H34.6875V12.1875Z" fill="#034899"/>
<path d="M34.6875 15.9375H42.1875V17.8125H34.6875V15.9375Z" fill="#034899"/>
<path d="M34.6875 19.6875H45.9375V21.5625H34.6875V19.6875Z" fill="#034899"/>
<path d="M34.6875 23.4375H49.6875V25.3125H34.6875V23.4375Z" fill="#034899"/>
<path d="M34.6875 27.1875H49.6875V29.0625H34.6875V27.1875Z" fill="#034899"/>
<path d="M44.0625 30.9375H49.6875V32.8125H44.0625V30.9375Z" fill="#034899"/>
<path d="M34.6875 34.6875H45.9375V36.5625H34.6875V34.6875Z" fill="#034899"/>
<path d="M34.6875 38.4375H49.6875V40.3125H34.6875V38.4375Z" fill="#034899"/>
<path d="M44.0625 15.9375H49.6875V17.8125H44.0625V15.9375Z" fill="#034899"/>
<path d="M47.8125 19.6875H49.6875V21.5625H47.8125V19.6875Z" fill="#034899"/>
<path d="M34.6875 30.9375H42.1875V32.8125H34.6875V30.9375Z" fill="#034899"/>
<path d="M47.8125 34.6875H49.6875V36.5625H47.8125V34.6875Z" fill="#034899"/>
<path d="M42.1875 4.6875H44.0625V6.5625H42.1875V4.6875Z" fill="#034899"/>
<path d="M30.9375 4.6875H32.8125V6.5625H30.9375V4.6875Z" fill="#034899"/>
</svg>
