<svg width="150" height="150" viewBox="0 0 150 150" fill="none" xmlns="http://www.w3.org/2000/svg">
<path d="M138.935 85.5311L139.587 78.5587L135.576 76.5604L135.703 75.1997L150 82.4968L149.885 83.7309L134.502 88.0578L134.628 86.7077L138.935 85.5311ZM140.62 79.0667L140.044 85.2268L148.414 82.9556L140.62 79.0667Z" fill="#F44336"/>
<path d="M142.34 101.157L131.715 97.9074L132.063 96.6879L141.677 99.6284L142.962 95.1263L139.041 93.7167C137.591 93.1849 136.508 92.688 135.793 92.2262C135.085 91.7663 134.61 91.2601 134.369 90.7076C134.128 90.1551 134.112 89.513 134.321 88.7812L134.455 88.3138L135.496 88.6321L135.408 89.0142C135.222 89.716 135.406 90.3175 135.96 90.8186C136.515 91.3197 137.603 91.87 139.226 92.4695L144.308 94.267L142.34 101.157Z" fill="#F44336"/>
<path d="M136.481 105.038L135.042 107.99C134.673 108.747 134.216 109.339 133.671 109.767C133.13 110.204 132.553 110.446 131.943 110.491C131.329 110.542 130.711 110.406 130.089 110.081C129.132 109.582 128.53 108.84 128.283 107.857C128.039 106.883 128.199 105.819 128.761 104.664L130.73 100.624L140.622 105.787L140.074 106.913L136.481 105.038ZM135.548 104.551L131.105 102.232L129.675 105.165C129.279 105.979 129.166 106.719 129.338 107.387C129.507 108.06 129.936 108.577 130.624 108.936C131.283 109.28 131.924 109.33 132.547 109.085C133.174 108.851 133.684 108.345 134.077 107.57L135.548 104.551Z" fill="#F44336"/>
<path d="M128.747 123.703L131.156 120.354L123.106 114.153L123.84 113.133L131.89 119.334L134.207 116.112L135.045 116.757L129.585 124.348L128.747 123.703Z" fill="#F44336"/>
<path d="M116.212 121.951C116.893 121.277 117.67 120.84 118.543 120.64C119.411 120.444 120.284 120.504 121.161 120.819C122.042 121.138 122.84 121.683 123.552 122.454L123.857 122.783C124.593 123.579 125.109 124.443 125.403 125.374C125.692 126.31 125.738 127.223 125.541 128.113C125.348 129.008 124.941 129.763 124.32 130.379C123.348 131.341 122.26 131.759 121.056 131.632C119.852 131.515 118.699 130.862 117.599 129.673L117.125 129.16L122.835 123.502L122.672 123.326C121.804 122.387 120.82 121.86 119.722 121.746C118.623 121.641 117.679 121.979 116.89 122.761C116.417 123.23 116.083 123.732 115.888 124.267C115.689 124.808 115.623 125.421 115.69 126.107L114.732 126.22C114.481 124.6 114.975 123.177 116.212 121.951ZM123.597 129.598C124.263 128.938 124.592 128.129 124.583 127.169C124.569 126.215 124.218 125.262 123.528 124.312L118.727 129.068L118.819 129.168C119.581 129.94 120.399 130.37 121.276 130.46C122.153 130.55 122.927 130.262 123.597 129.598Z" fill="#F44336"/>
<path d="M106.774 136.704C105.821 135.214 105.382 133.811 105.457 132.497C105.537 131.188 106.112 130.167 107.182 129.433C108.445 128.567 109.707 128.364 110.966 128.822L107.845 123.945L108.861 123.249L117.331 136.484L116.383 137.133L115.467 135.817C115.453 137.292 114.815 138.463 113.551 139.329C112.447 140.086 111.305 140.246 110.125 139.809C108.939 139.376 107.854 138.391 106.87 136.854L106.774 136.704ZM107.917 136.187C108.698 137.406 109.556 138.204 110.492 138.579C111.428 138.954 112.329 138.845 113.194 138.252C113.82 137.823 114.258 137.298 114.507 136.678C114.757 136.057 114.811 135.368 114.67 134.609L111.735 130.024C111.14 129.644 110.522 129.465 109.882 129.489C109.242 129.512 108.612 129.737 107.992 130.162C107.132 130.751 106.69 131.563 106.664 132.597C106.636 133.642 107.054 134.838 107.917 136.187Z" fill="#F44336"/>
<path d="M95.6781 141.964C94.9994 140.32 94.8117 138.859 95.1151 137.58C95.4211 136.307 96.1641 135.41 97.3442 134.888C98.7377 134.272 100.014 134.307 101.173 134.993L98.9521 129.613L100.073 129.118L106.101 143.715L105.055 144.178L104.383 142.712C104.113 144.16 103.281 145.193 101.887 145.809C100.67 146.348 99.5184 146.293 98.4335 145.643C97.3424 144.996 96.4467 143.825 95.7466 142.129L95.6781 141.964ZM96.8925 141.669C97.4479 143.013 98.1533 143.958 99.0087 144.501C99.8642 145.045 100.769 145.106 101.723 144.683C102.414 144.378 102.936 143.944 103.289 143.38C103.643 142.816 103.816 142.148 103.809 141.375L101.721 136.318C101.201 135.833 100.625 135.543 99.991 135.446C99.3574 135.35 98.6985 135.453 98.0143 135.756C97.0664 136.175 96.4898 136.891 96.2845 137.904C96.0755 138.926 96.2782 140.181 96.8925 141.669Z" fill="#F44336"/>
<path d="M84.5291 139.148C84.7259 139.471 84.9164 139.974 85.1005 140.655C85.3962 139.991 85.8364 139.428 86.4209 138.965C87.0004 138.511 87.6529 138.198 88.3786 138.028C89.4172 137.784 90.325 137.887 91.102 138.335C91.8724 138.784 92.3579 139.467 92.5585 140.384C92.7969 141.472 92.5494 142.436 91.816 143.274C91.076 144.114 89.9237 144.718 88.3591 145.085L86.1921 145.593L86.4704 146.864C86.6454 147.663 87.0223 148.234 87.6012 148.576C88.175 148.927 88.9179 148.996 89.83 148.782C90.6622 148.587 91.303 148.205 91.7524 147.636C92.2018 147.067 92.3586 146.472 92.2228 145.852L93.4235 145.581C93.6181 146.47 93.3868 147.332 92.7297 148.167C92.0741 149.009 91.1637 149.566 89.9986 149.84C88.7936 150.122 87.7763 150.031 86.9466 149.567C86.1118 149.11 85.5622 148.327 85.2978 147.215L84.1393 141.923C83.9025 140.842 83.6154 140.058 83.278 139.572L83.2509 139.448L84.5291 139.148ZM88.4786 139.156C87.6797 139.344 87.0111 139.711 86.4728 140.257C85.9278 140.805 85.5853 141.447 85.4454 142.182L85.9839 144.642L88.121 144.141C89.3097 143.848 90.192 143.402 90.7679 142.803C91.3453 142.211 91.5502 141.533 91.3828 140.768C91.2455 140.141 90.9086 139.673 90.372 139.364C89.8288 139.057 89.1977 138.988 88.4786 139.156Z" fill="#F44336"/>
<path d="M60.1678 146.533L73.7941 147.787L73.7016 148.864L60.0753 147.61L60.1678 146.533Z" fill="#F44336"/>
<path d="M52.9403 136.871L48.6244 147.431L44.8804 145.792C43.5852 145.225 42.6902 144.55 42.1954 143.765C41.698 142.988 41.638 142.137 42.0157 141.213C42.2311 140.686 42.5779 140.281 43.0561 140C43.5317 139.725 44.1036 139.622 44.7717 139.692C44.1585 139.27 43.745 138.74 43.5315 138.102C43.3116 137.461 43.3267 136.835 43.5766 136.224C43.9569 135.293 44.5853 134.717 45.4618 134.494C46.3294 134.276 47.3699 134.432 48.5833 134.963L52.9403 136.871ZM49.8316 141.24L51.4192 137.355L48.1467 135.923C47.2979 135.551 46.5749 135.434 45.9777 135.572C45.3804 135.709 44.9515 136.097 44.6909 136.734C44.4516 137.32 44.4909 137.886 44.809 138.431C45.127 138.977 45.7104 139.436 46.5591 139.807L49.8316 141.24ZM49.4327 142.216L46.5752 140.965C44.7916 140.215 43.6498 140.452 43.1499 141.675C42.8866 142.319 42.9403 142.895 43.3111 143.402C43.6729 143.913 44.3316 144.378 45.2872 144.797L47.909 145.944L49.4327 142.216Z" fill="#F44336"/>
<path d="M38.9533 130.614C38.2401 130.129 37.5128 129.931 36.7711 130.018C36.0201 130.107 35.4146 130.469 34.9548 131.103L33.9707 130.434C34.3704 129.869 34.8865 129.455 35.519 129.192C36.1479 128.935 36.8195 128.855 37.5339 128.952C38.2426 129.045 38.905 129.301 39.5212 129.72C40.7364 130.546 41.4231 131.639 41.5814 132.997C41.7341 134.352 41.3418 135.768 40.4047 137.244L40.2022 137.563C39.6024 138.508 38.9123 139.234 38.1317 139.743C37.3512 140.252 36.5386 140.503 35.6941 140.495C34.844 140.483 34.0195 140.206 33.2208 139.663C32.2053 138.972 31.5682 138.091 31.3095 137.019C31.045 135.943 31.2143 134.879 31.8171 133.826L32.8013 134.495C32.3708 135.276 32.249 136.06 32.4359 136.846C32.617 137.629 33.0698 138.267 33.7943 138.759C34.7186 139.388 35.6567 139.531 36.6087 139.189C37.5551 138.844 38.4237 138.048 39.2147 136.802L39.4115 136.493C40.1875 135.27 40.539 134.144 40.4661 133.114C40.3875 132.08 39.8832 131.247 38.9533 130.614Z" fill="#F44336"/>
<path d="M30.6135 122.488C31.2964 123.16 31.755 123.943 31.9894 124.836C32.2189 125.724 32.2025 126.629 31.9402 127.551C31.6733 128.477 31.1848 129.327 30.4747 130.1L30.1714 130.431C29.4377 131.23 28.6286 131.803 27.7438 132.151C26.8542 132.494 25.9752 132.585 25.1069 132.423C24.2339 132.266 23.4857 131.881 22.8622 131.268C21.8874 130.309 21.4329 129.204 21.4987 127.953C21.5549 126.702 22.1308 125.48 23.2266 124.287L23.6992 123.772L29.4292 129.408L29.5914 129.232C30.4567 128.289 30.9188 127.248 30.9777 126.107C31.0269 124.966 30.6556 124.006 29.8639 123.228C29.3889 122.76 28.8885 122.439 28.3627 122.263C27.8319 122.082 27.237 122.043 26.578 122.145L26.4235 121.16C27.9748 120.824 29.3715 121.267 30.6135 122.488ZM23.5817 130.484C24.2497 131.141 25.0466 131.443 25.9723 131.388C26.8931 131.329 27.7957 130.92 28.68 130.163L23.8629 125.425L23.7712 125.524C23.0624 126.348 22.6853 127.215 22.6401 128.125C22.5949 129.036 22.9088 129.822 23.5817 130.484Z" fill="#F44336"/>
<path d="M21.0091 113.206L20.1251 113.091C18.6831 112.934 16.9604 113.384 14.957 114.443L11.2185 116.476L7.91132 110.633L16.5787 105.379L15.9991 104.355L19.7011 102.11L20.317 103.199L17.5073 104.902L21.7151 112.336L24.5247 110.633L25.1199 111.684L21.4128 113.919L21.0091 113.206ZM20.2948 111.944L17.1998 106.476L9.52195 111.131L11.6181 114.834L14.1681 113.448C16.5097 112.176 18.5519 111.674 20.2948 111.944Z" fill="#F44336"/>
<path d="M2.96408 98.1031L13.3661 94.1556L13.7891 95.3496L4.37731 98.9213L5.93895 103.329L9.89946 102.04C11.3697 101.573 12.525 101.304 13.3652 101.233C14.199 101.165 14.8718 101.278 15.3834 101.573C15.8951 101.868 16.2778 102.374 16.5317 103.09L16.6938 103.548L15.6748 103.935L15.5251 103.574C15.2702 102.896 14.7759 102.526 14.042 102.466C13.3082 102.406 12.1172 102.636 10.4692 103.156L5.35414 104.849L2.96408 98.1031Z" fill="#F44336"/>
<path d="M0.324325 85.1721L11.2451 83.2397L11.4522 84.4931L7.05157 85.2719L7.63142 88.7816L12.4876 90.7606L12.7154 92.1394L7.69402 90.1037C7.62659 90.9112 7.3493 91.5802 6.86214 92.1108C6.37384 92.6344 5.74951 92.9635 4.98916 93.0981C4.00003 93.2731 3.14901 93.0474 2.43607 92.421C1.72199 91.7876 1.26141 90.8442 1.05432 89.5907L0.324325 85.1721ZM4.80226 91.841C5.44149 91.7279 5.93181 91.4261 6.27324 90.9357C6.61351 90.4382 6.72825 89.8123 6.61745 89.0578L6.02207 85.454L1.56091 86.2435L2.08899 89.4399C2.2328 90.3103 2.54799 90.9605 3.03455 91.3905C3.51996 91.8135 4.1092 91.9637 4.80226 91.841Z" fill="#F44336"/>
<path d="M10.4259 69.0539C10.5211 68.1763 10.3633 67.415 9.95238 66.7701C9.53546 66.1174 8.94977 65.7223 8.19532 65.5849L8.32668 64.3738C8.99446 64.487 9.58479 64.7759 10.0977 65.2407C10.6037 65.7048 10.9766 66.2884 11.2163 66.9916C11.4568 67.6878 11.5359 68.4151 11.4537 69.1733C11.2915 70.6687 10.6608 71.7969 9.5616 72.5579C8.46318 73.3118 7.06599 73.5903 5.37004 73.3932L5.00372 73.3507C3.91831 73.2246 2.97973 72.9165 2.18797 72.4264C1.39621 71.9363 0.812667 71.2998 0.43735 70.5168C0.0627939 69.7268 -0.0711786 68.8404 0.0354322 67.8574C0.17098 66.6077 0.642081 65.621 1.44874 64.8971C2.25615 64.1662 3.2497 63.8409 4.42939 63.9211L4.29803 65.1322C3.4304 65.0882 2.70003 65.3304 2.10693 65.8587C1.51459 66.3799 1.17006 67.0864 1.07335 67.978C0.949988 69.1154 1.25089 70.0461 1.97606 70.7702C2.70199 71.4873 3.78064 71.9289 5.21202 72.0952L5.56817 72.1366C6.97241 72.2997 8.10188 72.1146 8.95657 71.5812C9.81203 71.0407 10.3018 70.1983 10.4259 69.0539Z" fill="#F44336"/>
<path d="M4.86854 50.9249L3.73972 54.9335L13.3737 57.8393L13.0299 59.0602L3.39591 56.1544L2.31007 60.0104L1.30735 59.7079L3.86582 50.6225L4.86854 50.9249Z" fill="#F44336"/>
<path d="M14.223 41.0991C15.7736 41.8862 16.8372 42.8667 17.4138 44.0407C17.9842 45.2115 17.9868 46.3932 17.4217 47.5857C16.7544 48.9938 15.7653 49.8295 14.4545 50.0927L19.5292 52.6686L18.9927 53.8008L5.22097 46.8104L5.72146 45.7543L7.1551 46.4112C6.4465 45.1309 6.42585 43.7866 7.09318 42.3785C7.67634 41.1479 8.58372 40.4124 9.81533 40.172C11.0499 39.9252 12.4671 40.2078 14.0667 41.0198L14.223 41.0991ZM13.4889 42.1429C12.2202 41.4989 11.0904 41.2598 10.0994 41.4257C9.1084 41.5915 8.38446 42.1565 7.92755 43.1207C7.59689 43.8184 7.47525 44.5003 7.56261 45.1662C7.64997 45.8322 7.94004 46.4555 8.43281 47.0361L13.2042 49.458C13.9034 49.4746 14.5235 49.3054 15.0642 48.9504C15.605 48.5954 16.0393 48.0722 16.3669 47.3808C16.8208 46.423 16.8063 45.491 16.3233 44.5849C15.8372 43.6693 14.8924 42.8553 13.4889 42.1429Z" fill="#F44336"/>
<path d="M15.2757 38.5481C14.4191 37.8933 13.7693 37.1331 13.3263 36.2674C12.8874 35.3961 12.7015 34.5031 12.7688 33.5883C12.8346 32.6637 13.1515 31.8036 13.7193 31.008C14.5953 29.7806 15.7224 29.1051 17.1005 28.9816C18.4731 28.854 19.8458 29.3149 21.2185 30.3642L21.4244 30.5216C22.2865 31.1807 22.9397 31.9479 23.3842 32.8235C23.8272 33.6891 24.0123 34.5772 23.9396 35.4877C23.8668 36.3983 23.5445 37.2542 22.9726 38.0554C22.1006 39.2772 20.9763 39.9548 19.5996 40.0881C18.2215 40.2116 16.8461 39.7486 15.4734 38.6992L15.2757 38.5481ZM16.2776 37.733C17.3428 38.5473 18.4214 38.9327 19.5133 38.8891C20.6038 38.8357 21.4796 38.3458 22.1407 37.4195C22.7978 36.4989 22.9887 35.4942 22.7134 34.4055C22.4366 33.3068 21.7382 32.3293 20.6181 31.473L20.4286 31.3282C19.7478 30.8077 19.0313 30.462 18.2791 30.2911C17.527 30.1201 16.8289 30.153 16.1848 30.3896C15.5351 30.622 14.9933 31.0422 14.5594 31.6503C13.9104 32.5595 13.7271 33.5655 14.0093 34.6684C14.286 35.767 14.9817 36.7424 16.0964 37.5945L16.2776 37.733Z" fill="#F44336"/>
<path d="M24.6931 18.8053L25.5868 17.9326L33.19 26.2728L32.2963 27.1455L26.0493 20.293L27.9467 31.3926L27.0604 32.258L19.4572 23.9179L20.3435 23.0525L26.5975 29.9126L24.6931 18.8053ZM21.9079 15.8428C22.4466 16.4338 22.6861 17.1032 22.6265 17.8511C22.5718 18.5941 22.2168 19.2856 21.5614 19.9256C20.9159 20.5558 20.2306 20.8851 19.5054 20.9132C18.7806 20.9314 18.1464 20.6424 17.603 20.0463L18.3627 19.3045C18.7515 19.7311 19.1706 19.9386 19.62 19.9271C20.0744 19.9108 20.5201 19.6893 20.957 19.2627C21.394 18.836 21.6264 18.3857 21.6542 17.9118C21.6869 17.433 21.5183 16.9906 21.1482 16.5846L21.9079 15.8428Z" fill="#F44336"/>
<path d="M34.9527 18.4042L33.5287 19.3648L36.3021 23.7682L35.2642 24.4684L29.2141 14.8626L30.2521 14.1624L32.936 18.4238L34.3428 17.4747L35.0644 10.916L36.3597 10.0422L35.4866 17.2724L42.8301 19.3644L41.4747 20.2787L34.9527 18.4042Z" fill="#F44336"/>
<path d="M47.1945 4.77389L48.328 4.28288L52.6058 14.86L51.4723 15.351L47.9575 6.66057L45.9561 17.7406L44.8321 18.2275L40.5543 7.65037L41.6783 7.16345L45.197 15.8637L47.1945 4.77389Z" fill="#F44336"/>
<path d="M67.0482 0.146717L68.2688 0L69.547 11.3897L68.3265 11.5364L67.2762 2.17834L62.3865 12.2505L61.1761 12.396L59.8978 1.00624L61.1082 0.86074L62.1596 10.2294L67.0482 0.146717Z" fill="#F44336"/>
<path d="M88.3873 7.43528C88.1028 9.19827 87.4996 10.5337 86.578 11.4416C85.6574 12.3426 84.5642 12.6836 83.2984 12.4648C81.8036 12.2064 80.7467 11.465 80.1277 10.2406L79.1964 16.0103L77.9945 15.8026L80.5218 0.14472L81.6429 0.338529L81.4453 1.94824C82.4277 0.878906 83.6662 0.473446 85.161 0.731858C86.4672 0.957677 87.408 1.64678 87.9833 2.79917C88.5653 3.95272 88.7096 5.43886 88.416 7.25759L88.3873 7.43528ZM87.2108 7.00626C87.4436 5.56381 87.3414 4.37502 86.904 3.43988C86.4667 2.50474 85.7363 1.9487 84.7128 1.77177C83.9722 1.64373 83.3061 1.71839 82.7146 1.99576C82.1231 2.27312 81.6291 2.73926 81.2327 3.39417L80.3571 8.81902C80.542 9.51712 80.8763 10.0835 81.3598 10.518C81.8433 10.9526 82.4521 11.2333 83.186 11.3602C84.2027 11.536 85.0613 11.2546 85.7618 10.5162C86.4703 9.77199 86.9532 8.60201 87.2108 7.00626Z" fill="#F44336"/>
<path d="M93.8244 15.2621C92.9388 14.9299 92.2156 14.4031 91.655 13.6819C91.1008 12.963 90.7654 12.1271 90.649 11.1741C90.5348 10.2145 90.6534 9.23328 91.0046 8.23032L91.1546 7.8019C91.5175 6.76573 92.0368 5.90474 92.7126 5.21891C93.3949 4.53549 94.1651 4.08798 95.0234 3.87637C95.884 3.65812 96.7187 3.70066 97.5273 4.00398C98.7916 4.47821 99.6358 5.30208 100.06 6.4756C100.493 7.64489 100.438 9.00334 99.8961 10.5509L99.6624 11.2185L92.2304 8.43086L92.1502 8.66002C91.7222 9.88216 91.7021 11.0281 92.0899 12.0979C92.4864 13.1634 93.1981 13.8887 94.225 14.2739C94.8411 14.505 95.4241 14.5921 95.974 14.5354C96.5303 14.4811 97.0906 14.2704 97.6548 13.9034L98.1779 14.7421C96.8865 15.693 95.4353 15.8663 93.8244 15.2621ZM97.1714 5.02022C96.305 4.69524 95.4582 4.74959 94.6311 5.18328C93.8104 5.61938 93.1416 6.36798 92.6248 7.42906L98.8726 9.77254L98.918 9.64302C99.2488 8.59481 99.2586 7.64414 98.9474 6.79101C98.6363 5.93787 98.0443 5.34761 97.1714 5.02022Z" fill="#F44336"/>
<path d="M106.407 19.3381L115.138 13.4922L116.423 14.3244L110.544 24.0434L109.502 23.3687L114.327 15.3922L105.892 21.0295L105.154 20.5515L106.407 10.0113L101.474 18.1673L100.441 17.4982L106.32 7.77918L107.683 8.66199L106.407 19.3381Z" fill="#F44336"/>
<path d="M116.357 21.268C117.097 20.4746 117.91 19.9072 118.797 19.5658C119.689 19.2292 120.569 19.1552 121.436 19.3438C122.313 19.5321 123.096 19.9696 123.784 20.6562C124.845 21.7154 125.345 22.9602 125.283 24.3903C125.226 25.8154 124.605 27.1636 123.421 28.435L123.243 28.6257C122.499 29.4241 121.679 29.9941 120.782 30.3358C119.895 30.6772 119.02 30.7511 118.157 30.5575C117.294 30.3639 116.517 29.9213 115.824 29.2299C114.767 28.1755 114.265 26.9333 114.317 25.5034C114.379 24.0732 115.002 22.7224 116.187 21.4511L116.357 21.268ZM117.007 22.4024C116.088 23.389 115.578 24.4454 115.477 25.5715C115.386 26.6974 115.741 27.66 116.542 28.4594C117.338 29.2539 118.275 29.581 119.354 29.4408C120.443 29.3004 121.47 28.7115 122.437 27.674L122.601 27.4986C123.188 26.868 123.613 26.178 123.875 25.4286C124.137 24.6792 124.197 23.9586 124.054 23.2667C123.917 22.5698 123.585 21.959 123.059 21.4343C122.273 20.6496 121.333 20.33 120.24 20.4755C119.151 20.6159 118.126 21.2023 117.164 22.2346L117.007 22.4024Z" fill="#F44336"/>
<path d="M125.801 41.2682L125.082 40.2371L129.2 37.1606L125.706 32.1512L121.588 35.2276L120.869 34.1965L129.852 27.4854L130.571 28.5165L126.545 31.5247L130.039 36.5342L134.065 33.526L134.785 34.5571L125.801 41.2682Z" fill="#F44336"/>
<path d="M139.747 46.4926L137.97 42.7439L128.961 47.317L128.42 46.1753L137.429 41.6021L135.72 37.9961L136.658 37.5201L140.684 46.0167L139.747 46.4926Z" fill="#F44336"/>
<path d="M133.511 59.9815C133.811 59.7586 134.284 59.5314 134.929 59.2998C134.272 59.0346 133.702 58.6141 133.22 58.0383C132.746 57.4674 132.405 56.8123 132.197 56.0729C131.899 55.0148 131.942 54.0708 132.327 53.2409C132.714 52.4178 133.343 51.8748 134.215 51.6119C135.251 51.2996 136.195 51.4968 137.048 52.2034C137.903 52.9169 138.555 54.0706 139.004 55.6645L139.626 57.8723L140.835 57.5076C141.595 57.2783 142.123 56.8542 142.418 56.2354C142.721 55.6214 142.742 54.8498 142.48 53.9205C142.242 53.0727 141.834 52.4339 141.258 52.0043C140.682 51.5746 140.099 51.4487 139.509 51.6266L139.175 50.4028C140.021 50.1478 140.866 50.3343 141.711 50.9624C142.563 51.5886 143.156 52.4951 143.49 53.6821C143.836 54.9098 143.81 55.9662 143.412 56.8515C143.023 57.7416 142.301 58.3569 141.245 58.6975L136.211 60.2157C135.182 60.526 134.444 60.8702 133.996 61.2482L133.878 61.2838L133.511 59.9815ZM133.279 55.9011C133.508 56.715 133.903 57.3834 134.462 57.9063C135.024 58.436 135.664 58.7509 136.382 58.8508L138.721 58.1451L138.108 55.9678C137.753 54.7577 137.269 53.8733 136.657 53.3148C136.051 52.7543 135.385 52.5837 134.657 52.8031C134.061 52.983 133.63 53.3595 133.365 53.9325C133.101 54.5124 133.073 55.1685 133.279 55.9011Z" fill="#F44336"/>
<path d="M135.136 64.3253C135.372 64.2874 135.583 64.3322 135.768 64.4598C135.96 64.5933 136.078 64.7996 136.12 65.0789C136.162 65.3581 136.11 65.5916 135.966 65.7792C135.828 65.9658 135.641 66.0781 135.405 66.116C135.169 66.1539 134.961 66.1051 134.782 65.9695C134.609 65.8327 134.502 65.6247 134.46 65.3455C134.418 65.0662 134.46 64.8344 134.584 64.65C134.716 64.4715 134.9 64.3633 135.136 64.3253Z" fill="#F44336"/>
</svg>
